<svg width="197" height="117" viewBox="0 0 197 117" fill="none" xmlns="http://www.w3.org/2000/svg">
<path d="M46.1938 41.0913C49.1991 41.5813 51.5021 42.7083 53.1028 44.4723C54.7034 46.2036 55.5038 48.3596 55.5038 50.9403C55.5038 52.9329 54.9811 54.7786 53.9358 56.4773C52.8904 58.1433 51.2898 59.4826 49.1338 60.4953C47.0104 61.5079 44.3971 62.0143 41.2938 62.0143C38.8764 62.0143 36.4918 61.7039 34.1398 61.0833C31.8204 60.4299 29.8441 59.5153 28.2108 58.3393L31.2978 52.2633C32.6044 53.2433 34.1071 54.0109 35.8058 54.5663C37.5371 55.0889 39.3011 55.3503 41.0978 55.3503C43.0904 55.3503 44.6584 54.9746 45.8018 54.2233C46.9451 53.4393 47.5168 52.3449 47.5168 50.9403C47.5168 48.1309 45.3771 46.7263 41.0978 46.7263H37.4718V41.4833L44.5278 33.4963H29.9258V27.1263H53.9358V32.2713L46.1938 41.0913ZM61.3248 27.1263H76.9068C80.6308 27.1263 83.9138 27.8449 86.7558 29.2823C89.6305 30.6869 91.8518 32.6796 93.4198 35.2603C95.0205 37.8409 95.8208 40.8463 95.8208 44.2763C95.8208 47.7063 95.0205 50.7116 93.4198 53.2923C91.8518 55.8729 89.6305 57.8819 86.7558 59.3193C83.9138 60.7239 80.6308 61.4263 76.9068 61.4263H61.3248V27.1263ZM76.5148 54.9093C79.9448 54.9093 82.6725 53.9619 84.6978 52.0673C86.7558 50.1399 87.7848 47.5429 87.7848 44.2763C87.7848 41.0096 86.7558 38.4289 84.6978 36.5343C82.6725 34.6069 79.9448 33.6433 76.5148 33.6433H69.2628V54.9093H76.5148Z" fill="#606060"/>
<rect x="3" y="3" width="191" height="111" rx="8" stroke="#606060" stroke-width="6"/>
<mask id="path-3-inside-1" fill="white">
<rect x="168" y="19.1807" width="16" height="84.3934" rx="2"/>
</mask>
<rect x="168" y="19.1807" width="16" height="84.3934" rx="2" fill="white" stroke="#606060" stroke-width="6" mask="url(#path-3-inside-1)"/>
<path d="M116 14.3853V28.7705" stroke="#606060" stroke-linecap="round"/>
<path d="M116 34.5244V48.9097" stroke="#606060" stroke-linecap="round"/>
<path d="M116 54.6641V69.0493" stroke="#606060" stroke-linecap="round"/>
<path d="M116 88.2295V102.615" stroke="#606060" stroke-linecap="round"/>
<path d="M16 78.6396H25" stroke="#606060" stroke-linecap="round"/>
<path d="M31 78.6396H40" stroke="#606060" stroke-linecap="round"/>
<path d="M46 78.6396H55" stroke="#606060" stroke-linecap="round"/>
<path d="M61 78.6396H70" stroke="#606060" stroke-linecap="round"/>
<path d="M76 78.6396H85" stroke="#606060" stroke-linecap="round"/>
<path d="M91 78.6396H100" stroke="#606060" stroke-linecap="round"/>
<path d="M106 78.6396H115" stroke="#606060" stroke-linecap="round"/>
<path d="M121 78.6396H130" stroke="#606060" stroke-linecap="round"/>
<path d="M136 78.6396H145" stroke="#606060" stroke-linecap="round"/>
<path d="M151 78.6396H160" stroke="#606060" stroke-linecap="round"/>
</svg>
